<svg viewBox="0 0 467 981" fill="none" xmlns="http://www.w3.org/2000/svg">
<path d="M455.958 327.269C425.941 327.269 396.598 336.835 371.64 354.757C346.682 372.679 327.23 398.153 315.743 427.957C304.256 457.761 301.25 490.556 307.106 522.196C312.962 553.835 327.417 582.898 348.642 605.709C369.867 628.52 396.909 644.054 426.349 650.348C455.789 656.641 486.305 653.411 514.036 641.066C541.768 628.721 565.471 607.815 582.148 580.992C598.824 554.17 607.725 522.635 607.725 490.375C607.679 447.132 591.675 405.673 563.223 375.096C534.771 344.518 496.195 327.318 455.958 327.269ZM455.958 657.2C425.257 657.2 395.245 647.416 369.718 629.085C344.191 610.754 324.295 584.699 312.547 554.216C300.798 523.733 297.724 490.19 303.713 457.829C309.703 425.469 324.487 395.743 346.195 372.412C367.904 349.082 395.563 333.193 425.674 326.756C455.785 320.319 486.996 323.623 515.36 336.249C543.724 348.876 567.968 370.258 585.024 397.692C602.081 425.127 611.185 457.38 611.185 490.375C611.134 534.603 594.764 577.004 565.664 608.278C536.564 639.552 497.111 657.146 455.958 657.2Z" fill="#17D3FE" fill-opacity="0.42"/>
<path d="M455.958 286.483C409.07 286.534 363.872 305.301 329.132 339.142C294.392 372.984 272.587 419.487 267.948 469.63C263.308 519.773 276.165 569.981 304.023 610.512C331.882 651.043 372.756 679.009 418.715 688.982C464.675 698.956 512.443 690.227 552.753 664.489C593.063 638.75 623.039 597.838 636.867 549.689C650.695 501.54 647.389 449.587 627.589 403.91C607.79 358.233 572.909 322.088 529.714 302.489C506.378 291.885 481.294 286.442 455.958 286.483ZM455.958 283.155C503.613 283.199 549.554 302.263 584.87 336.65C620.187 371.037 642.36 418.295 647.089 469.258C651.819 520.221 638.767 571.255 610.466 612.461C582.164 653.666 540.631 682.106 493.923 692.264C447.214 702.422 398.66 693.573 357.679 667.434C316.698 641.295 286.211 599.729 272.132 550.799C258.054 501.87 261.387 449.065 281.485 402.627C301.583 356.189 337.014 319.429 380.904 299.477C404.645 288.664 430.173 283.112 455.958 283.155Z" fill="#17D3FE" fill-opacity="0.42"/>
<path d="M455.958 245.697C399.711 245.759 345.49 268.27 303.813 308.864C262.136 349.458 235.973 405.241 230.4 465.393C224.826 525.544 240.239 585.777 273.649 634.407C307.059 683.036 356.084 716.597 411.214 728.579C466.345 740.561 523.652 730.11 572.018 699.253C620.385 668.395 656.364 619.332 672.976 561.58C689.588 503.827 685.649 441.502 661.924 386.694C638.198 331.885 596.377 288.501 544.572 264.956C516.542 252.189 486.401 245.639 455.958 245.697ZM455.958 242.741C512.909 242.794 567.812 265.578 610.017 306.674C652.222 347.77 678.719 404.249 684.37 465.153C690.02 526.058 674.421 587.047 640.597 636.29C606.773 685.533 557.137 719.519 501.317 731.656C445.496 743.793 387.471 733.216 338.496 701.975C289.522 670.735 253.089 621.059 236.267 562.584C219.444 504.109 223.43 441.003 247.451 385.507C271.472 330.011 313.817 286.082 366.27 262.242C394.643 249.329 425.146 242.697 455.958 242.741Z" fill="#17D3FE" fill-opacity="0.42"/>
<path d="M455.957 204.911C390.301 204.973 327.007 231.242 278.352 278.62C229.698 325.999 199.152 391.111 192.64 461.324C186.127 531.538 204.113 601.848 243.108 658.617C282.103 715.385 339.328 754.564 403.681 768.553C468.034 782.543 534.928 770.346 591.386 734.328C647.845 698.31 689.843 641.04 709.234 573.626C728.626 506.212 724.027 433.46 696.331 369.484C668.635 305.508 619.816 254.867 559.344 227.386C526.639 212.499 491.475 204.855 455.957 204.911ZM455.957 202.346C522.173 202.425 586.001 228.933 635.061 276.727C684.121 324.521 714.915 390.194 721.47 461.008C728.025 531.821 709.874 602.727 670.537 659.972C631.201 717.217 573.483 756.72 508.579 770.818C443.676 784.917 376.213 772.606 319.278 736.274C262.342 699.941 219.992 642.178 200.442 574.187C180.892 506.196 185.536 432.825 213.472 368.306C241.409 303.787 290.648 252.718 351.637 225.006C384.639 209.992 420.12 202.285 455.957 202.346Z" fill="#17D3FE" fill-opacity="0.42"/>
<path d="M455.958 164.143C380.947 164.239 308.642 194.273 253.07 248.419C197.498 302.566 162.619 376.965 155.2 457.185C147.78 537.405 168.348 617.727 212.915 682.571C257.482 747.415 322.87 792.158 396.396 808.122C469.921 824.085 546.343 810.131 610.837 768.965C675.331 727.8 723.3 662.358 745.438 585.334C767.577 508.309 762.307 425.194 730.651 352.109C698.995 279.024 643.21 221.18 574.116 189.797C536.736 172.793 496.548 164.068 455.958 164.143ZM455.958 161.931C531.511 162.012 604.344 192.25 660.326 246.778C716.309 301.306 751.451 376.237 758.935 457.036C766.419 537.835 745.712 618.742 700.83 684.061C655.948 749.38 590.092 794.455 516.036 810.541C441.98 826.628 365.004 812.58 300.04 771.122C235.077 729.664 186.757 663.752 164.455 586.172C142.152 508.592 147.457 424.874 179.339 351.26C211.222 277.645 267.41 219.381 337.003 187.771C374.634 170.647 415.093 161.858 455.958 161.931Z" fill="#17D3FE" fill-opacity="0.42"/>
<path d="M455.958 123.357C371.565 123.47 290.219 157.265 227.699 218.188C165.179 279.11 125.942 362.817 117.6 453.072C109.257 543.326 132.403 633.693 182.549 706.644C232.694 779.595 306.263 829.93 388.986 847.884C471.709 865.838 557.689 850.132 630.246 803.812C702.804 757.493 756.768 683.861 781.669 597.201C806.571 510.541 800.636 417.03 765.015 334.807C729.394 252.584 666.627 187.51 588.888 152.209C546.835 133.079 501.623 123.266 455.958 123.357ZM455.958 121.498C540.776 121.606 622.533 155.567 685.371 216.793C748.208 278.019 787.647 362.145 796.035 452.853C804.424 543.561 781.165 634.385 730.77 707.706C680.376 781.027 606.438 831.618 523.299 849.666C440.16 867.714 353.747 851.933 280.822 805.383C207.898 758.833 153.66 684.833 128.63 597.737C103.6 510.642 109.563 416.66 145.361 334.021C181.159 251.383 244.241 185.98 322.37 150.498C364.633 131.284 410.069 121.433 455.958 121.536V121.498Z" fill="#17D3FE" fill-opacity="0.42"/>
<path d="M455.958 82.5719C362.224 82.7095 271.879 120.257 202.446 187.93C133.013 255.604 89.442 348.581 80.1843 448.825C70.9267 549.069 96.6423 649.436 152.343 730.457C208.044 811.479 289.759 867.379 381.639 887.315C473.519 907.251 569.014 889.802 649.601 838.353C730.188 786.904 790.122 705.121 817.779 608.869C845.435 512.617 838.842 408.756 799.279 317.432C759.716 226.108 690.002 153.831 603.66 114.621C556.934 93.3669 506.697 82.4664 455.958 82.5719ZM455.958 81.1219C550.072 81.2393 640.791 118.92 710.517 186.855C780.243 254.79 824.006 348.136 833.316 448.786C842.625 549.436 816.819 650.215 760.902 731.573C704.985 812.931 622.944 869.068 530.693 889.096C438.442 909.124 342.557 891.614 261.639 839.962C180.721 788.311 120.538 706.201 92.7645 609.56C64.9906 512.918 71.606 408.635 111.327 316.939C151.049 225.243 221.044 152.671 307.736 113.301C354.625 91.9656 405.039 81.0208 455.958 81.1219Z" fill="#17D3FE" fill-opacity="0.42"/>
<path d="M455.958 41.7858C352.843 41.8967 253.441 83.1629 177.033 157.58C100.626 231.997 52.6593 334.26 42.4376 444.533C32.2159 554.807 60.4677 665.23 121.713 754.385C182.958 843.539 272.831 905.07 373.9 927.041C474.968 949.012 580.027 929.858 668.699 873.295C757.371 816.731 823.335 726.789 853.795 620.915C884.256 515.042 877.042 400.783 833.554 300.301C790.065 199.82 713.401 120.279 618.432 77.1063C567.034 53.7138 511.775 41.7008 455.958 41.7858ZM455.958 40.7262C559.36 40.8767 659.024 82.2969 735.617 156.952C812.211 231.607 860.273 334.175 870.482 444.759C880.69 555.344 852.317 666.062 790.866 755.435C729.415 844.809 639.266 906.468 537.908 928.451C436.549 950.434 331.206 931.174 242.313 874.407C153.42 817.64 87.3142 727.414 56.8187 621.229C26.3232 515.045 33.612 400.472 77.2712 299.736C120.93 199 197.848 119.283 293.103 76.0467C344.623 52.6159 400.014 40.6025 455.958 40.7262Z" fill="#17D3FE" fill-opacity="0.42"/>
<path d="M455.958 0.999808C343.451 1.14714 235.006 46.1989 151.659 127.416C68.3119 208.632 16.0044 320.224 4.88358 440.544C-6.23727 560.864 24.6213 681.334 91.473 778.586C158.325 875.837 256.404 942.936 366.685 966.867C476.966 990.798 591.586 969.854 688.311 908.099C785.037 846.344 856.972 748.18 890.162 632.649C923.352 517.118 915.431 392.457 867.936 282.847C820.44 173.238 736.756 86.4941 633.118 39.4434C577.069 13.9612 516.815 0.886089 455.958 0.999808ZM455.958 980.438C350.744 980.403 248.778 941.276 167.337 869.688C85.8958 798.099 29.9888 698.452 9.08942 587.631C-11.8099 476.81 3.58377 361.632 52.662 261.614C101.74 161.596 181.485 82.8887 278.382 38.83C389.821 -11.7599 515.395 -12.7015 627.48 36.2124C739.564 85.1263 828.978 179.889 876.051 299.654C923.124 419.418 924 554.374 878.487 674.833C832.973 795.292 744.799 891.386 633.36 941.976C577.235 967.49 516.897 980.572 455.958 980.438Z" fill="#17D3FE" fill-opacity="0.42"/>
</svg>
