<svg width="208" height="208" viewBox="0 0 208 208" fill="none" xmlns="http://www.w3.org/2000/svg">
<circle cx="104" cy="104" r="104" fill="white"/>
<path d="M107.417 186.415C152.853 186.415 189.686 149.517 189.686 104C189.686 58.4835 152.853 21.585 107.417 21.585C61.9815 21.585 25.1487 58.4835 25.1487 104C25.1487 149.517 61.9815 186.415 107.417 186.415Z" fill="#17D3FE"/>
<path d="M100.583 186.415C146.018 186.415 182.851 149.517 182.851 104C182.851 58.4835 146.018 21.585 100.583 21.585C55.1473 21.585 18.3145 58.4835 18.3145 104C18.3145 149.517 55.1473 186.415 100.583 186.415Z" fill="#0F77E6"/>
<path d="M53.8822 73.9551V156.013H106.486L53.8822 73.9551Z" fill="white"/>
<path d="M30.2991 88.5707C30.6056 80.4055 32.7082 72.4089 36.4566 65.1519C40.205 57.8949 45.5069 51.5567 51.9834 46.5899C58.46 41.6231 65.9515 38.1503 73.9228 36.4195C81.8942 34.6887 90.1487 34.7427 98.0968 36.5776C90.9998 33.8629 83.4212 32.6395 75.8322 32.9835C68.2432 33.3275 60.8059 35.2314 53.9826 38.5771C47.1593 41.9227 41.0958 46.6385 36.169 52.4313C31.2421 58.2241 27.5573 64.9702 25.3435 72.2502C23.1297 79.5302 22.4342 87.1886 23.3003 94.7493C24.1663 102.31 26.5755 109.611 30.3779 116.2C34.1803 122.788 39.2948 128.523 45.4034 133.047C51.512 137.571 58.4843 140.788 65.8867 142.499C55.0756 138.359 45.8297 130.933 39.4471 121.261C33.0644 111.589 29.8654 100.157 30.2991 88.5707Z" fill="white"/>
<path d="M67.1447 59.3792C65.7184 59.3792 64.3218 59.4387 62.9352 59.5478C83.6063 61.2545 99.741 75.4236 99.741 92.619C99.741 109.814 83.6063 123.984 62.9352 125.69C64.3218 125.809 65.7184 125.869 67.1447 125.869C89.7868 125.869 108.15 110.985 108.15 92.619C108.15 74.2528 89.7868 59.3792 67.1447 59.3792Z" fill="white"/>
<path d="M127.117 92.371C127.692 77.2691 136.319 64.5288 148.343 58.7937C140.649 60.4434 133.722 64.6143 128.658 70.6475C123.594 76.6807 120.681 84.2322 120.378 92.1091C120.076 99.986 122.402 107.739 126.99 114.144C131.577 120.549 138.163 125.24 145.709 127.476C134.16 120.838 126.533 107.473 127.117 92.371Z" fill="white"/>
<path d="M121.373 94.2066H107.308L114.529 85.5344L121.373 94.2066Z" fill="white"/>
<path d="M107.12 155.894H107.199C107.962 155.894 108.061 155.527 108.378 154.624L110.24 149.286H111.607L113.647 154.842C113.924 155.586 114.023 155.894 114.806 155.894H114.935V156.569C114.222 156.569 113.627 156.519 113.132 156.519C112.637 156.519 112.033 156.519 111.518 156.569V155.894C112.251 155.894 112.508 155.894 112.508 155.527C112.503 155.428 112.483 155.331 112.449 155.239L112.132 154.316H109.517L109.2 155.249C109.152 155.365 109.129 155.49 109.131 155.616C109.131 155.805 109.388 155.894 109.864 155.894H109.982V156.569C109.299 156.569 108.784 156.509 108.408 156.509C108.031 156.509 107.734 156.509 107.1 156.509L107.12 155.894ZM111.884 153.691L110.785 150.437L109.685 153.721L111.884 153.691Z" fill="white"/>
<path d="M122.353 156.569H120.511C120.225 155.679 119.864 154.816 119.432 153.989C119.288 153.746 119.079 153.548 118.828 153.418C118.578 153.289 118.296 153.232 118.015 153.255H117.708V154.882C117.708 155.715 117.768 155.874 118.827 155.874V156.549C117.966 156.549 117.352 156.489 116.995 156.489C116.638 156.489 116.005 156.489 115.143 156.549V155.874C116.282 155.874 116.351 155.725 116.351 154.882V151.121C116.351 150.258 116.282 150.129 115.143 150.129V149.444H118.114C120.214 149.444 121.244 149.97 121.244 151.24C121.244 152.104 120.699 152.699 119.64 152.927C120.373 153.016 120.63 153.344 120.888 154.048L121.353 155.209C121.541 155.685 121.62 155.904 122.254 155.904H122.344L122.353 156.569ZM118.203 152.6C119.303 152.6 119.818 152.203 119.818 151.31C119.818 150.417 119.333 150.139 118.213 150.139H117.708V152.6H118.203Z" fill="white"/>
<path d="M128.91 149.444V151.697H127.92C127.92 151.459 127.92 151.26 127.92 151.082C127.92 150.695 127.92 150.456 127.751 150.347C127.406 150.173 127.016 150.107 126.632 150.159H126.246V154.892C126.246 155.755 126.305 155.884 127.454 155.884V156.559C126.583 156.559 125.919 156.499 125.473 156.499C125.028 156.499 124.344 156.499 123.621 156.559V155.884C124.76 155.884 124.83 155.735 124.83 154.892V150.159H124.443C124.06 150.105 123.669 150.171 123.324 150.347C123.185 150.456 123.146 150.695 123.146 151.082C123.146 151.26 123.146 151.459 123.146 151.697H122.155V149.444H128.91Z" fill="white"/>
<path d="M130.624 154.882V151.121C130.624 150.258 130.555 150.129 129.416 150.129V149.444C129.883 149.49 130.352 149.51 130.822 149.504C131.311 149.504 131.845 149.484 132.427 149.444L134.526 153.354C134.866 153.995 135.164 154.658 135.418 155.338V151.082C135.418 150.218 135.348 150.089 134.209 150.089V149.444C134.744 149.444 135.259 149.504 135.784 149.504C136.309 149.504 136.775 149.504 137.587 149.444V150.139C136.438 150.139 136.379 150.268 136.379 151.131V156.579H134.923L131.585 150.318V154.892C131.585 155.755 131.644 155.884 132.793 155.884V156.559C132.139 156.559 131.585 156.499 131.099 156.499C130.614 156.499 130.109 156.499 129.416 156.559V155.884C130.555 155.894 130.624 155.745 130.624 154.882Z" fill="white"/>
<path d="M144.451 156.569H138.042V155.894C139.182 155.894 139.251 155.745 139.251 154.902V151.141C139.251 150.278 139.182 150.149 138.042 150.149V149.444H144.292V151.27H143.391C143.391 151.141 143.391 151.022 143.391 150.923C143.391 150.129 143.074 150.079 141.994 150.079H140.687V152.54H141.024C142.014 152.54 142.292 152.461 142.292 151.776C142.296 151.7 142.296 151.624 142.292 151.548H143.015V154.227H142.292C142.296 154.151 142.296 154.075 142.292 153.999C142.292 153.314 141.985 153.235 141.024 153.235H140.687V155.844H142.252C143.332 155.844 143.649 155.795 143.649 155.011C143.649 154.902 143.649 154.783 143.649 154.654H144.49L144.451 156.569Z" fill="white"/>
<path d="M152.573 156.569H150.73C150.444 155.679 150.083 154.816 149.651 153.989C149.507 153.746 149.298 153.548 149.048 153.418C148.797 153.289 148.515 153.232 148.234 153.255H147.927V154.882C147.927 155.715 147.987 155.874 149.037 155.874V156.549C148.175 156.549 147.571 156.489 147.214 156.489C146.858 156.489 146.224 156.489 145.352 156.549V155.874C146.501 155.874 146.57 155.725 146.57 154.882V151.121C146.57 150.258 146.501 150.129 145.352 150.129V149.444H148.323C150.423 149.444 151.453 149.97 151.453 151.24C151.453 152.104 150.909 152.699 149.849 152.927C150.582 153.016 150.839 153.344 151.087 154.048L151.562 155.209C151.741 155.685 151.83 155.904 152.464 155.904H152.573V156.569ZM148.422 152.6C149.522 152.6 150.027 152.203 150.027 151.31C150.027 150.417 149.552 150.139 148.432 150.139H147.927V152.6H148.422Z" fill="white"/>
<path d="M153.157 154.405H154.147C154.147 155.566 154.554 156.063 155.534 156.063C156.515 156.063 157 155.616 157 154.842C156.998 154.693 156.967 154.546 156.907 154.41C156.847 154.274 156.761 154.151 156.653 154.048C156.019 153.606 155.316 153.27 154.573 153.056C153.583 152.639 153.107 152.064 153.107 151.23C153.107 149.98 154.098 149.186 155.94 149.186C156.655 149.179 157.363 149.321 158.02 149.603V151.33H157.03C157.03 150.278 156.713 149.831 155.841 149.831C154.97 149.831 154.524 150.238 154.524 150.903C154.524 151.568 154.97 151.895 155.96 152.232C156.622 152.423 157.253 152.711 157.832 153.086C158.026 153.259 158.179 153.474 158.281 153.714C158.382 153.955 158.428 154.214 158.416 154.475C158.416 155.914 157.426 156.727 155.445 156.727C154.664 156.746 153.891 156.579 153.187 156.241L153.157 154.405Z" fill="white"/>
</svg>
