<svg width="183" height="156" viewBox="0 0 183 156" fill="none" xmlns="http://www.w3.org/2000/svg">
<path d="M134.969 121.507C147.3 121.328 158.08 117.289 166.731 108.274C172.574 102.185 175.934 94.8233 177.604 86.6041C179.614 76.74 178.355 67.3214 173.826 58.3484C173.762 58.225 173.697 58.0989 173.641 57.97C173.176 56.8911 173.456 55.9019 174.359 55.4311C175.261 54.9604 176.262 55.2882 176.83 56.3251C177.852 58.1632 178.697 60.0942 179.353 62.0922C185.501 81.204 181.69 98.0852 167.49 112.29C159.837 119.946 150.309 124.29 139.481 125.052C124.136 126.128 110.715 121.49 100.036 110.113C93.8371 103.496 90.2557 95.4818 88.7453 86.5733C87.1451 77.0958 88.0867 67.8398 91.9091 58.9985C97.9957 44.8944 108.748 36.2549 123.55 32.5278C134.824 29.6919 145.688 30.7876 156.141 35.9522C156.329 36.0475 156.519 36.1372 156.701 36.2325C157.822 36.8574 158.212 37.8046 157.755 38.7546C157.273 39.7354 156.211 40.0464 155.054 39.4383C151.528 37.5587 147.754 36.1878 143.844 35.3666C135.219 33.6095 126.826 34.4922 118.738 37.8746C108.353 42.2182 100.523 49.3894 95.5325 59.5337C93.0648 64.47 91.6949 69.8818 91.5167 75.3976C91.2085 85.5869 93.5905 95.0559 99.4081 103.505C105.343 112.125 113.591 117.474 123.657 120.111C127.352 121.059 131.154 121.528 134.969 121.507Z" fill="black"/>
<path d="M167.011 78.6597C167.182 93.2485 156.166 107.585 139.568 109.852C124.178 111.954 106.526 103.258 103.502 83.1938C101.866 72.3348 104.819 62.6949 112.767 54.8904C117.598 50.1433 123.584 47.6548 130.211 46.5619C136.634 45.5027 142.754 46.4414 148.634 49.1597C149.305 49.4571 149.953 49.8046 150.573 50.1994C150.958 50.4231 151.239 50.7909 151.354 51.2218C151.469 51.6527 151.407 52.1115 151.184 52.4972C150.972 52.8866 150.624 53.1838 150.207 53.3318C149.789 53.4798 149.332 53.468 148.922 53.2987C148.632 53.1817 148.351 53.043 148.081 52.884C137.646 47.2205 125.102 49.3306 116.415 56.7484C111.032 61.3414 107.613 67.1169 106.784 74.1647C105.593 84.2839 108.745 92.9066 116.438 99.6882C121.955 104.561 128.552 106.848 135.858 106.621C146.282 106.296 154.073 101.297 159.436 92.4527C162.164 87.9626 163.57 82.7945 163.494 77.5415C163.471 73.2168 162.379 68.9647 160.316 65.1637C159.459 63.5636 159.585 62.5407 160.658 61.9663C161.732 61.3918 162.64 61.857 163.477 63.4907C165.898 68.1748 167.112 73.3883 167.011 78.6597Z" fill="black"/>
<path d="M164.833 58.8528C162.679 58.6987 160.543 58.609 158.425 58.3624C157.612 58.2671 157.13 58.5221 156.6 59.0518C150.073 65.6017 143.534 72.1405 136.984 78.668C136.698 78.9764 136.391 79.2647 136.065 79.5311C135.727 79.7846 135.31 79.9081 134.888 79.8788C134.467 79.8496 134.071 79.6697 133.771 79.3719C133.472 79.0742 133.289 78.6787 133.258 78.2576C133.226 77.8365 133.347 77.4182 133.599 77.0791C133.865 76.7533 134.154 76.4462 134.462 76.1599C141.001 69.6212 147.539 63.0871 154.078 56.5577C154.349 56.322 154.553 56.0203 154.673 55.6819C154.792 55.3436 154.822 54.9802 154.759 54.6269C154.51 52.5112 154.434 50.373 154.255 48.2489C154.21 47.814 154.267 47.3746 154.422 46.9658C154.578 46.5571 154.826 46.1903 155.149 45.8949C158.973 42.0894 162.79 38.2773 166.599 34.4587C167.213 33.8478 167.885 33.3377 168.841 33.6992C169.85 34.0804 170.082 34.9182 170.141 35.8906C170.262 37.8523 170.441 39.7971 170.559 41.7503C170.592 42.3108 170.8 42.5433 171.377 42.577C173.367 42.6975 175.353 42.874 177.343 43.0029C178.282 43.0646 179.066 43.3308 179.436 44.2864C179.787 45.1803 179.349 45.8557 178.758 46.447C174.902 50.3179 171.042 54.1842 167.176 58.0458C166.886 58.3677 166.519 58.6106 166.109 58.7518C165.699 58.893 165.26 58.9277 164.833 58.8528ZM163.928 55.179C164.466 55.2238 164.948 55.179 165.374 54.753C167.936 52.1637 170.519 49.5968 173.092 47.0186C173.238 46.8729 173.465 46.7384 173.395 46.503C173.299 46.206 172.991 46.2956 172.758 46.2788C171.607 46.1948 170.452 46.1415 169.303 46.035C167.846 45.8977 167.246 45.298 167.103 43.8436C167 42.7647 166.952 41.6802 166.862 40.6013C166.84 40.3043 167 39.8896 166.638 39.7606C166.358 39.6542 166.17 40.0073 165.98 40.1978C163.5 42.6694 161.034 45.1579 158.539 47.6155C158.321 47.8146 158.153 48.0634 158.051 48.3409C157.948 48.6185 157.914 48.9166 157.951 49.2101C158.1 50.8102 158.231 52.4131 158.352 54.0188C158.388 54.5345 158.598 54.7586 159.12 54.7951C160.737 54.8988 162.337 55.0445 163.928 55.179Z" fill="black"/>
<path d="M151.878 77.5918C151.923 86.8058 145.153 94.3328 136.71 95.011C127.574 95.7452 119.896 89.9388 118.385 81.1395C116.379 69.5099 125.853 59.8139 137.626 61.442C138.426 61.5218 139.215 61.6919 139.977 61.9493C141.244 62.4313 141.832 63.4401 141.462 64.4489C141.092 65.4578 140.151 65.7968 138.822 65.4045C135.533 64.412 131.988 64.7301 128.928 66.2924C125.868 67.8547 123.531 70.54 122.407 73.7862C119.781 81.3749 124.433 91.127 134.591 91.3427C142.157 91.5025 147.482 86.6601 148.233 79.1106C148.374 77.5067 148.211 75.8904 147.753 74.3467C147.367 72.9652 147.753 71.9928 148.802 71.6677C149.85 71.3426 150.763 71.9675 151.237 73.2706C151.8 74.8483 151.856 76.4933 151.878 77.5918Z" fill="black"/>
<circle cx="78" cy="78" r="78" fill="url(#paint0_linear_66_2085)" style="mix-blend-mode:multiply"/>
<defs>
<linearGradient id="paint0_linear_66_2085" x1="153.972" y1="3.77266" x2="-21.1674" y2="55.3935" gradientUnits="userSpaceOnUse">
<stop stop-color="#0F77E6"/>
<stop offset="1" stop-color="#17D3FE"/>
</linearGradient>
</defs>
</svg>
