<svg width="186" height="156" viewBox="0 0 186 156" fill="none" xmlns="http://www.w3.org/2000/svg">
<path d="M138.279 24.0028C139.243 24.5633 139.638 25.404 139.63 26.5249C139.593 30.9638 139.63 35.4026 139.604 39.8387C139.604 41.6041 138.032 42.641 136.522 41.9516C136.145 41.7991 135.823 41.5353 135.6 41.1953C135.377 40.8554 135.262 40.4555 135.272 40.0489C135.272 35.3671 135.272 30.6845 135.272 26.0009C135.272 25.0509 135.863 24.4736 136.595 24L138.279 24.0028Z" fill="black"/>
<path d="M137.393 107.332C127.585 107.274 118.693 104.188 110.463 99.0235C102.6 94.0887 95.9918 87.7807 90.3591 80.433C90.1041 80.0995 89.8659 79.752 89.6305 79.4045C88.7898 78.1911 88.7898 77.4149 89.6305 76.2267C92.118 72.7485 94.9139 69.5015 97.9842 66.5251C103.589 61.0466 109.779 56.4059 116.897 53.074C124.463 49.5234 132.388 47.7664 140.748 48.3969C149.23 49.0358 156.979 51.9474 164.161 56.4255C172.007 61.3156 178.624 67.5591 184.273 74.8536C184.593 75.2683 184.898 75.6943 185.198 76.1286C186.109 77.4513 186.125 78.1855 185.198 79.4914C182.664 83.0218 179.812 86.3132 176.679 89.3247C171.223 94.6491 165.189 99.1553 158.273 102.428C151.668 105.539 144.752 107.355 137.393 107.332ZM137.438 102.986C138.172 102.924 138.901 102.837 139.635 102.807C146.159 102.526 152.226 100.593 157.973 97.6056C166.854 92.9846 174.084 86.3963 180.325 78.6479C180.849 78.0006 180.801 77.555 180.297 76.9329C174.07 69.2209 166.882 62.6411 158.027 58.0397C150.881 54.3266 143.331 52.3342 135.193 52.7937C128.709 53.1609 122.67 55.0216 116.956 57.9836C108.073 62.5934 100.829 69.1649 94.5962 76.9273C94.0358 77.6167 94.0946 78.0482 94.6242 78.718C100.316 85.7966 106.87 91.8888 114.781 96.4398C121.793 100.472 129.286 102.86 137.438 102.986Z" fill="black"/>
<path d="M135.264 122.471C135.264 120.302 135.264 118.133 135.264 115.961C135.264 114.375 136.104 113.461 137.461 113.472C138.783 113.472 139.604 114.389 139.607 115.905C139.618 120.349 139.618 124.794 139.607 129.238C139.607 130.757 138.786 131.662 137.463 131.676C136.141 131.69 135.272 130.771 135.264 129.19C135.255 126.951 135.264 124.71 135.264 122.471Z" fill="black"/>
<path d="M97.4295 39.9311C97.767 39.9236 98.1022 39.9871 98.4136 40.1175C98.725 40.2478 99.0055 40.4421 99.237 40.6878C102.129 43.5798 105.035 46.4605 107.91 49.3749C108.939 50.4146 108.944 51.7401 108.008 52.6396C107.072 53.5392 105.828 53.4971 104.822 52.5023C101.889 49.6029 98.9698 46.6847 96.0648 43.7479C95.7164 43.4428 95.4791 43.0309 95.3898 42.5766C95.3006 42.1223 95.3645 41.6512 95.5715 41.237C95.7324 40.8704 95.9906 40.5549 96.3182 40.3246C96.6457 40.0944 97.0301 39.9583 97.4295 39.9311Z" fill="black"/>
<path d="M168.292 53.2618C167.882 53.242 167.486 53.1076 167.149 52.8737C166.812 52.6398 166.548 52.316 166.386 51.9391C166.195 51.5594 166.128 51.1294 166.195 50.7097C166.261 50.2899 166.458 49.9015 166.756 49.5992C167.437 48.851 168.171 48.1476 168.889 47.4302C171.131 45.1884 173.372 42.9101 175.651 40.6878C176.976 39.396 178.907 39.8696 179.414 41.551C179.534 41.9215 179.545 42.3187 179.445 42.6952C179.346 43.0717 179.141 43.4118 178.854 43.6751C175.865 46.6792 172.875 49.6683 169.886 52.6425C169.677 52.8499 169.428 53.012 169.154 53.1186C168.879 53.2251 168.586 53.2739 168.292 53.2618Z" fill="black"/>
<path d="M97.5218 117.788C97.1138 117.778 96.7167 117.654 96.3758 117.43C96.0349 117.205 95.7639 116.889 95.5938 116.518C95.3837 116.129 95.3062 115.683 95.3729 115.246C95.4397 114.809 95.6471 114.405 95.9637 114.097C96.9474 113.057 97.9758 112.054 98.9902 111.04C100.868 109.159 102.743 107.273 104.631 105.404C105.797 104.25 107.092 104.157 108.047 105.124C109.003 106.091 108.888 107.366 107.731 108.543C104.97 111.32 102.19 114.083 99.4246 116.857C98.9174 117.359 98.3681 117.765 97.5218 117.788Z" fill="black"/>
<path d="M168.292 104.455C168.621 104.446 168.948 104.508 169.252 104.635C169.555 104.762 169.829 104.952 170.054 105.192C172.949 108.084 175.855 110.967 178.742 113.879C179.778 114.924 179.798 116.233 178.873 117.141C177.948 118.049 176.643 118.021 175.578 116.967C172.694 114.111 169.836 111.233 166.966 108.364C166.235 107.632 165.943 106.789 166.378 105.788C166.538 105.408 166.803 105.081 167.142 104.844C167.48 104.608 167.879 104.473 168.292 104.455Z" fill="black"/>
<path d="M137.253 58.8189C147.154 58.8189 155.345 66.1357 156.379 75.742C156.902 80.7505 155.431 85.7636 152.284 89.6946C149.136 93.6256 144.567 96.1579 139.565 96.7426C128.473 98.0597 118.472 89.1932 118.438 78.0147C118.396 76.8599 118.474 75.7038 118.671 74.5651C118.951 73.2284 120.019 72.3625 121.193 72.553C122.482 72.766 123.272 73.8561 123.051 75.2516C122.492 78.5228 123.055 81.8867 124.648 84.7978C126.242 87.7088 128.771 89.9963 131.828 91.2893C140.736 95.0276 150.897 89.011 151.929 79.3963C152.769 71.4181 147.109 64.6953 140.103 63.4595C137.573 63.0247 134.975 63.2171 132.537 64.02C131.093 64.4739 130.054 64.1657 129.499 63.154C128.807 61.893 129.356 60.5143 130.844 59.951C132.883 59.147 135.062 58.7619 137.253 58.8189Z" fill="black"/>
<path d="M145.918 77.765C145.927 79.4435 145.437 81.0868 144.512 82.4868C143.586 83.8869 142.266 84.9808 140.718 85.6299C139.17 86.279 137.464 86.4541 135.817 86.1332C134.169 85.8122 132.654 85.0095 131.463 83.8268C130.272 82.6441 129.459 81.1345 129.126 79.4893C128.794 77.8441 128.957 76.1373 129.596 74.5849C130.234 73.0326 131.319 71.7046 132.712 70.7692C134.106 69.8337 135.746 69.3329 137.424 69.3301C138.539 69.3155 139.645 69.5233 140.678 69.9413C141.711 70.3593 142.651 70.9792 143.442 71.7645C144.233 72.5499 144.859 73.4851 145.284 74.5154C145.709 75.5457 145.925 76.6505 145.918 77.765ZM137.584 81.9125C139.826 81.7695 141.678 79.7911 141.544 77.6613C141.401 75.4195 139.422 73.5672 137.292 73.7017C135.051 73.8446 133.201 75.823 133.333 77.9528C133.476 80.189 135.457 82.047 137.584 81.9125Z" fill="black"/>
<path d="M124.8 69.4646C124.373 69.4591 123.957 69.3274 123.604 69.086C123.252 68.8447 122.978 68.5045 122.819 68.1082C122.659 67.7119 122.62 67.2773 122.707 66.8589C122.793 66.4406 123.002 66.0572 123.306 65.7571C123.61 65.4569 123.996 65.2534 124.415 65.1721C124.835 65.0907 125.269 65.1352 125.663 65.3C126.057 65.4647 126.394 65.7424 126.631 66.0979C126.868 66.4535 126.994 66.8712 126.994 67.2985C127.002 67.5874 126.95 67.8747 126.842 68.1428C126.734 68.4108 126.572 68.6539 126.366 68.8569C126.161 69.06 125.915 69.2187 125.646 69.3232C125.377 69.4277 125.089 69.4759 124.8 69.4646Z" fill="black"/>
<circle cx="78" cy="78" r="78" fill="url(#paint0_linear_66_2084)" style="mix-blend-mode:multiply"/>
<defs>
<linearGradient id="paint0_linear_66_2084" x1="153.972" y1="3.77266" x2="-21.1674" y2="55.3935" gradientUnits="userSpaceOnUse">
<stop stop-color="#0F77E6"/>
<stop offset="1" stop-color="#17D3FE"/>
</linearGradient>
</defs>
</svg>
