<svg width="186" height="156" viewBox="0 0 186 156" fill="none" xmlns="http://www.w3.org/2000/svg">
<path d="M78 52.1601C78.5605 51.4511 79.3031 51.2073 80.211 51.2382C81.7439 51.2886 83.2936 51.2382 84.8124 51.2578C86.0426 51.2718 86.8301 51.9275 86.8413 52.9027C86.8413 53.8303 86.1239 54.5841 84.9694 54.6234C83.2627 54.6906 81.5533 54.6542 79.8467 54.6234C79.4776 54.6346 79.1122 54.5477 78.7877 54.3714C78.4632 54.1952 78.1914 53.9359 78 53.6201V52.1601Z" fill="black"/>
<path d="M185.609 53.6312C185.417 53.9467 185.145 54.2059 184.821 54.3826C184.497 54.5593 184.131 54.6471 183.762 54.6373C182.081 54.6569 180.416 54.6373 178.743 54.6373C178.568 54.6301 178.395 54.6048 178.225 54.5616C177.314 54.3598 176.672 53.606 176.782 52.7905C176.905 51.8854 177.46 51.2997 178.376 51.2745C180.293 51.224 182.213 51.2521 184.129 51.2605C184.791 51.2605 185.183 51.7397 185.609 52.1516V53.6312Z" fill="black"/>
<path d="M137.199 117.916C139.471 115.26 141.743 112.602 144.017 109.944C147.337 106.056 150.656 102.167 153.976 98.2777C154.893 97.2016 155.851 97.0222 156.68 97.7536C157.51 98.485 157.462 99.393 156.566 100.447C151.955 105.864 147.337 111.268 142.711 116.658C141.31 118.3 140.052 120.099 138.365 121.492C136.278 123.226 133.591 124.066 130.889 123.828C128.186 123.591 125.687 122.295 123.935 120.223C111.48 105.626 99.0173 91.0318 86.547 76.4392C83.5233 72.9139 83.3019 67.7997 86.7824 64.3248C91.9106 59.205 96.8287 53.8722 101.792 48.5898C104.145 46.0817 106.979 44.9468 110.4 44.9468C120.419 44.986 130.434 44.9468 140.452 44.9468C140.803 44.9468 141.156 44.9468 141.503 44.9636C142.54 45.0617 143.185 45.6978 143.213 46.6086C143.232 47.5754 142.582 48.3124 141.503 48.36C140.068 48.4245 138.631 48.36 137.196 48.4021C136.557 48.4245 135.646 48.0546 135.346 48.6066C135.114 49.0382 135.882 49.6519 136.229 50.1647C139.816 55.4742 143.411 60.7799 147.013 66.0819C147.679 67.0627 147.688 67.0655 148.313 66.0006C151.336 60.8696 154.332 55.7273 157.392 50.6215C157.939 49.7079 157.687 49.3156 156.832 48.9709C156.03 48.6148 155.167 48.4196 154.29 48.3965C152.642 48.3965 150.997 48.3965 149.352 48.3965C148.013 48.3768 147.282 47.7491 147.282 46.6786C147.282 45.6082 148.016 44.9552 149.352 44.9748C151.449 45.0057 153.556 44.8011 155.644 45.1374C157.711 45.4253 159.624 46.3935 161.08 47.8892C166.584 53.6228 172.09 59.3591 177.516 65.1655C180.242 68.0827 180.094 72.7962 177.278 76.1394C173.556 80.5614 169.784 84.9359 166.032 89.3299C164.667 90.9272 163.308 92.5301 161.935 94.119C161.049 95.1447 160.111 95.3016 159.298 94.5954C158.485 93.8892 158.494 92.9561 159.382 91.9108C164.357 86.0727 169.336 80.2401 174.318 74.4132C174.765 73.9186 175.149 73.3697 175.459 72.7794C175.708 72.2722 175.621 71.9723 174.994 71.9695H174.573C166.447 71.9695 158.32 71.9695 150.193 71.9527C149.324 71.9527 148.977 72.247 148.761 73.0736C144.892 87.8325 141.006 102.591 137.104 117.35C137.059 117.516 137.028 117.681 136.989 117.846L137.199 117.916ZM131.855 71.9583H119.348C118.037 71.9583 118.034 71.9583 118.364 73.2166C120.208 80.2205 122.054 87.2263 123.902 94.2339C126.084 102.521 128.264 110.809 130.442 119.096C130.667 119.962 130.936 120.553 132.029 120.464C132.998 120.382 132.995 119.671 133.149 119.062C137.194 103.792 141.228 88.506 145.25 73.2054C145.575 71.9751 145.569 71.9667 144.345 71.9667L131.855 71.9583ZM126.435 117.916L126.609 117.815C126.572 117.647 126.539 117.482 126.494 117.317C122.608 102.573 118.722 87.8232 114.836 73.068C114.595 72.1489 114.15 71.9471 113.295 71.9471C105.241 71.9695 97.1883 71.9742 89.1363 71.9611H88.6095C87.9986 71.9611 87.8781 72.2414 88.1359 72.7654C88.4451 73.354 88.8263 73.9019 89.2708 74.3963C99.7739 86.6948 110.275 98.996 120.774 111.3C122.658 113.514 124.542 115.721 126.427 117.922L126.435 117.916ZM131.774 68.5171C135.658 68.5171 139.544 68.5171 143.431 68.5171C143.725 68.5171 144.123 68.6796 144.294 68.3517C144.432 68.0855 144.118 67.8529 143.966 67.6316C140.122 61.9513 136.26 56.2794 132.429 50.5879C131.925 49.8397 131.653 49.9125 131.185 50.6075C127.348 56.2999 123.498 61.9811 119.637 67.6512C119.488 67.8725 119.174 68.0939 119.331 68.377C119.488 68.66 119.841 68.5171 120.107 68.5199C123.995 68.5255 127.881 68.5264 131.765 68.5227L131.774 68.5171ZM128.512 48.517C128.311 48.4744 128.108 48.4435 127.904 48.4245C121.638 48.4245 115.371 48.4245 109.103 48.4245C108.297 48.4605 107.505 48.6508 106.771 48.9849C105.931 49.324 105.681 49.7192 106.228 50.6271C109.318 55.7927 112.369 60.9826 115.383 66.1968C115.865 67.0375 116.086 66.8861 116.543 66.1968C118.642 63.0526 120.78 59.9364 122.901 56.8062C124.743 54.0936 126.578 51.3697 128.512 48.517ZM100.379 68.5227C104.16 68.5227 107.945 68.5227 111.717 68.5227C112.536 68.5227 112.821 68.4386 112.306 67.5727C109.44 62.7639 106.602 57.9393 103.792 53.0987C103.338 52.3113 103.025 52.1628 102.369 52.8942C101.155 54.2505 99.8748 55.5452 98.6193 56.8623C95.4079 60.225 92.1974 63.5925 88.9878 66.9646C88.6151 67.3541 87.9649 67.7661 88.2059 68.3209C88.3937 68.7553 89.0999 68.5003 89.5679 68.5031C93.1716 68.5311 96.7754 68.5227 100.379 68.5227ZM163.232 68.5227C166.875 68.5227 170.518 68.5227 174.161 68.5227C174.596 68.5227 175.223 68.7637 175.425 68.3377C175.652 67.8585 175.064 67.497 174.781 67.1271C174.758 67.1006 174.733 67.0753 174.708 67.0515C170.233 62.3548 165.764 57.6712 161.299 53.0007C160.444 52.1067 160.433 52.1123 159.777 53.2276C156.975 57.9916 154.172 62.7555 151.37 67.5195C150.779 68.5255 150.782 68.5367 152.001 68.5367C155.745 68.5311 159.488 68.5264 163.232 68.5227Z" fill="black"/>
<path d="M99.4992 37.5122C99.4992 38.3865 99.5216 39.2608 99.4992 40.1351C99.4656 41.1664 98.8406 41.8529 97.9411 41.9118C97.0416 41.9706 96.2905 41.4018 96.184 40.3537C96.0005 38.4394 96.0005 36.512 96.184 34.5977C96.1923 34.378 96.2442 34.162 96.3368 33.9626C96.4293 33.7631 96.5607 33.584 96.7232 33.4358C96.8858 33.2877 97.0762 33.1734 97.2833 33.0996C97.4905 33.0258 97.7103 32.994 97.9299 33.006C98.8266 33.0677 99.4375 33.7571 99.5076 34.7855C99.5076 34.8556 99.5076 34.9256 99.5076 34.9957C99.502 35.8336 99.502 36.6743 99.4992 37.5122Z" fill="black"/>
<path d="M164.101 37.4702C164.101 36.5622 164.07 35.6515 164.101 34.7463C164.146 33.7291 164.81 33.0397 165.71 33.0005C166.134 32.9902 166.546 33.1442 166.859 33.4304C167.172 33.7165 167.363 34.1127 167.391 34.5362C167.594 36.4832 167.594 38.446 167.391 40.393C167.384 40.6136 167.33 40.8302 167.234 41.0289C167.138 41.2276 167.001 41.404 166.833 41.5467C166.664 41.6895 166.468 41.7955 166.256 41.8579C166.044 41.9203 165.822 41.9377 165.603 41.909C164.743 41.8334 164.126 41.1692 164.09 40.1968C164.084 39.2889 164.101 38.3809 164.101 37.4702Z" fill="black"/>
<path d="M88.8871 45.6642C88.3746 45.6283 87.8939 45.4025 87.5391 45.0309C86.3285 43.8203 85.1039 42.6209 83.913 41.3879C83.0386 40.4855 83.019 39.5411 83.8009 38.8097C84.5155 38.1428 85.4626 38.2128 86.3229 39.0451C87.57 40.2669 88.8002 41.5084 90.0248 42.7554C90.2851 42.9963 90.4588 43.3162 90.5191 43.6657C90.5793 44.0152 90.5228 44.3748 90.3583 44.689C90.223 44.9685 90.0151 45.2065 89.7562 45.3781C89.4974 45.5497 89.1972 45.6485 88.8871 45.6642Z" fill="black"/>
<path d="M174.912 45.6698C174.128 45.6137 173.578 45.3307 173.273 44.717C172.967 44.1033 172.973 43.4447 173.449 42.9487C174.828 41.5139 176.221 40.0876 177.681 38.7453C178.314 38.1568 179.13 38.224 179.78 38.8181C180.43 39.4122 180.649 40.2613 180.038 40.9731C178.683 42.5275 177.225 43.989 175.674 45.3475C175.44 45.4959 175.182 45.6048 174.912 45.6698Z" fill="black"/>
<circle cx="78" cy="78" r="78" fill="url(#paint0_linear_66_2083)" style="mix-blend-mode:multiply"/>
<defs>
<linearGradient id="paint0_linear_66_2083" x1="153.972" y1="3.77266" x2="-21.1674" y2="55.3935" gradientUnits="userSpaceOnUse">
<stop stop-color="#0F77E6"/>
<stop offset="1" stop-color="#17D3FE"/>
</linearGradient>
</defs>
</svg>
